<mxfile host="app.diagrams.net" agent="Mozilla/5.0 (Windows NT 10.0; Win64; x64) AppleWebKit/537.36 (KHTML, like Gecko) Chrome/126.0.0.0 Safari/537.36 OPR/112.0.0.0" version="24.7.14">
  <diagram name="Сторінка-1" id="bHM-N1Gu2KKfyUEDz_TF">
    <mxGraphModel dx="996" dy="557" grid="1" gridSize="10" guides="1" tooltips="1" connect="1" arrows="1" fold="1" page="1" pageScale="1" pageWidth="827" pageHeight="1169" math="0" shadow="0">
      <root>
        <mxCell id="0" />
        <mxCell id="1" parent="0" />
        <mxCell id="Q3XOVqa8N67rWDwjMycp-1" value="WEAPON" style="rounded=1;whiteSpace=wrap;html=1;" parent="1" vertex="1">
          <mxGeometry x="50" y="50" width="120" height="60" as="geometry" />
        </mxCell>
        <mxCell id="Q3XOVqa8N67rWDwjMycp-2" value="diferent tipe weapon" style="ellipse;shape=cloud;whiteSpace=wrap;html=1;" parent="1" vertex="1">
          <mxGeometry x="20" y="150" width="190" height="110" as="geometry" />
        </mxCell>
        <mxCell id="Q3XOVqa8N67rWDwjMycp-3" value="" style="shape=flexArrow;endArrow=classic;html=1;rounded=0;entryX=0.479;entryY=0.131;entryDx=0;entryDy=0;entryPerimeter=0;" parent="1" target="Q3XOVqa8N67rWDwjMycp-2" edge="1">
          <mxGeometry width="50" height="50" relative="1" as="geometry">
            <mxPoint x="110" y="110" as="sourcePoint" />
            <mxPoint x="140" y="180" as="targetPoint" />
          </mxGeometry>
        </mxCell>
        <mxCell id="Q3XOVqa8N67rWDwjMycp-4" value="Unit" style="ellipse;whiteSpace=wrap;html=1;" parent="1" vertex="1">
          <mxGeometry x="340" y="50" width="120" height="80" as="geometry" />
        </mxCell>
        <mxCell id="Q3XOVqa8N67rWDwjMycp-5" value="" style="endArrow=classic;html=1;rounded=0;entryX=0;entryY=0.5;entryDx=0;entryDy=0;" parent="1" target="Q3XOVqa8N67rWDwjMycp-4" edge="1">
          <mxGeometry width="50" height="50" relative="1" as="geometry">
            <mxPoint x="190" y="204.5" as="sourcePoint" />
            <mxPoint x="250" y="204.5" as="targetPoint" />
          </mxGeometry>
        </mxCell>
        <mxCell id="Q3XOVqa8N67rWDwjMycp-6" value="diferent type unit" style="whiteSpace=wrap;html=1;aspect=fixed;" parent="1" vertex="1">
          <mxGeometry x="380" y="210" width="80" height="80" as="geometry" />
        </mxCell>
        <mxCell id="Q3XOVqa8N67rWDwjMycp-7" value="" style="shape=flexArrow;endArrow=classic;html=1;rounded=0;entryX=0.5;entryY=0;entryDx=0;entryDy=0;exitX=0.5;exitY=1;exitDx=0;exitDy=0;" parent="1" source="Q3XOVqa8N67rWDwjMycp-4" target="Q3XOVqa8N67rWDwjMycp-6" edge="1">
          <mxGeometry width="50" height="50" relative="1" as="geometry">
            <mxPoint x="390" y="320" as="sourcePoint" />
            <mxPoint x="440" y="270" as="targetPoint" />
          </mxGeometry>
        </mxCell>
        <mxCell id="Q3XOVqa8N67rWDwjMycp-8" value="Hero" style="shape=process;whiteSpace=wrap;html=1;backgroundOutline=1;" parent="1" vertex="1">
          <mxGeometry x="360" y="350" width="120" height="60" as="geometry" />
        </mxCell>
        <mxCell id="Q3XOVqa8N67rWDwjMycp-9" value="" style="shape=flexArrow;endArrow=classic;html=1;rounded=0;entryX=0.5;entryY=0;entryDx=0;entryDy=0;exitX=0.5;exitY=1;exitDx=0;exitDy=0;" parent="1" source="Q3XOVqa8N67rWDwjMycp-6" target="Q3XOVqa8N67rWDwjMycp-8" edge="1">
          <mxGeometry width="50" height="50" relative="1" as="geometry">
            <mxPoint x="390" y="320" as="sourcePoint" />
            <mxPoint x="440" y="270" as="targetPoint" />
          </mxGeometry>
        </mxCell>
        <mxCell id="Q3XOVqa8N67rWDwjMycp-11" value="Armor" style="rounded=1;whiteSpace=wrap;html=1;" parent="1" vertex="1">
          <mxGeometry x="690" y="30" width="120" height="60" as="geometry" />
        </mxCell>
        <mxCell id="Q3XOVqa8N67rWDwjMycp-12" value="dif type arrmor" style="ellipse;shape=cloud;whiteSpace=wrap;html=1;" parent="1" vertex="1">
          <mxGeometry x="690" y="140" width="120" height="80" as="geometry" />
        </mxCell>
        <mxCell id="Q3XOVqa8N67rWDwjMycp-13" value="" style="shape=flexArrow;endArrow=classic;html=1;rounded=0;exitX=0.335;exitY=1.01;exitDx=0;exitDy=0;exitPerimeter=0;" parent="1" source="Q3XOVqa8N67rWDwjMycp-11" target="Q3XOVqa8N67rWDwjMycp-12" edge="1">
          <mxGeometry width="50" height="50" relative="1" as="geometry">
            <mxPoint x="390" y="320" as="sourcePoint" />
            <mxPoint x="440" y="270" as="targetPoint" />
          </mxGeometry>
        </mxCell>
        <mxCell id="Q3XOVqa8N67rWDwjMycp-14" value="" style="endArrow=classic;html=1;rounded=0;exitX=0.07;exitY=0.4;exitDx=0;exitDy=0;exitPerimeter=0;" parent="1" source="Q3XOVqa8N67rWDwjMycp-12" target="Q3XOVqa8N67rWDwjMycp-4" edge="1">
          <mxGeometry width="50" height="50" relative="1" as="geometry">
            <mxPoint x="390" y="320" as="sourcePoint" />
            <mxPoint x="440" y="270" as="targetPoint" />
          </mxGeometry>
        </mxCell>
        <mxCell id="Q3XOVqa8N67rWDwjMycp-15" value="Inventors arr[]" style="rhombus;whiteSpace=wrap;html=1;" parent="1" vertex="1">
          <mxGeometry x="50" y="340" width="130" height="110" as="geometry" />
        </mxCell>
        <mxCell id="Q3XOVqa8N67rWDwjMycp-16" value="yacheika inventor" style="shape=trapezoid;perimeter=trapezoidPerimeter;whiteSpace=wrap;html=1;fixedSize=1;" parent="1" vertex="1">
          <mxGeometry x="180" y="470" width="120" height="60" as="geometry" />
        </mxCell>
        <mxCell id="Q3XOVqa8N67rWDwjMycp-17" value="" style="shape=flexArrow;endArrow=classic;html=1;rounded=0;entryX=1;entryY=1;entryDx=0;entryDy=0;exitX=0.5;exitY=0;exitDx=0;exitDy=0;" parent="1" source="Q3XOVqa8N67rWDwjMycp-16" target="Q3XOVqa8N67rWDwjMycp-15" edge="1">
          <mxGeometry width="50" height="50" relative="1" as="geometry">
            <mxPoint x="390" y="320" as="sourcePoint" />
            <mxPoint x="440" y="270" as="targetPoint" />
            <Array as="points">
              <mxPoint x="170" y="450" />
            </Array>
          </mxGeometry>
        </mxCell>
        <mxCell id="Q3XOVqa8N67rWDwjMycp-18" value="" style="shape=flexArrow;endArrow=classic;html=1;rounded=0;entryX=0;entryY=0.25;entryDx=0;entryDy=0;exitX=0.832;exitY=0.304;exitDx=0;exitDy=0;exitPerimeter=0;" parent="1" source="Q3XOVqa8N67rWDwjMycp-15" target="Q3XOVqa8N67rWDwjMycp-8" edge="1">
          <mxGeometry width="50" height="50" relative="1" as="geometry">
            <mxPoint x="390" y="320" as="sourcePoint" />
            <mxPoint x="440" y="270" as="targetPoint" />
          </mxGeometry>
        </mxCell>
        <mxCell id="Q3XOVqa8N67rWDwjMycp-21" style="edgeStyle=orthogonalEdgeStyle;rounded=0;orthogonalLoop=1;jettySize=auto;html=1;entryX=1;entryY=1;entryDx=0;entryDy=0;exitX=0.863;exitY=0.777;exitDx=0;exitDy=0;exitPerimeter=0;" parent="1" source="Q3XOVqa8N67rWDwjMycp-19" target="Q3XOVqa8N67rWDwjMycp-4" edge="1">
          <mxGeometry relative="1" as="geometry">
            <mxPoint x="570" y="110" as="targetPoint" />
          </mxGeometry>
        </mxCell>
        <mxCell id="Q3XOVqa8N67rWDwjMycp-19" value="position" style="shape=or;whiteSpace=wrap;html=1;rotation=-135;" parent="1" vertex="1">
          <mxGeometry x="550" y="165" width="75" height="80" as="geometry" />
        </mxCell>
        <mxCell id="Q3XOVqa8N67rWDwjMycp-23" value="Map" style="shape=xor;whiteSpace=wrap;html=1;rotation=0;" parent="1" vertex="1">
          <mxGeometry x="690" y="270" width="60" height="80" as="geometry" />
        </mxCell>
        <mxCell id="Q3XOVqa8N67rWDwjMycp-24" value="" style="shape=flexArrow;endArrow=classic;startArrow=classic;html=1;rounded=0;entryX=0;entryY=0.75;entryDx=0;entryDy=0;entryPerimeter=0;exitX=0.123;exitY=-0.01;exitDx=0;exitDy=0;exitPerimeter=0;" parent="1" source="Q3XOVqa8N67rWDwjMycp-23" target="Q3XOVqa8N67rWDwjMycp-19" edge="1">
          <mxGeometry width="100" height="100" relative="1" as="geometry">
            <mxPoint x="540" y="310" as="sourcePoint" />
            <mxPoint x="640" y="210" as="targetPoint" />
          </mxGeometry>
        </mxCell>
      </root>
    </mxGraphModel>
  </diagram>
</mxfile>
